<svg width="40" height="16" viewBox="0 0 40 16" fill="none" xmlns="http://www.w3.org/2000/svg">
<g clip-path="url(#clip0_1709_107)">
<path d="M5.37489 2.64697L5.38089 2.61897L5.39689 2.50097L4.65689 2.49697C3.98889 2.49297 3.78389 2.49697 3.76589 2.51397C3.75689 2.52197 3.52589 3.39897 3.11489 4.98697C2.91889 5.74497 2.75389 6.34997 2.74789 6.33197C2.74189 6.31397 2.50789 5.44897 2.22589 4.40997C2.05705 3.77472 1.88238 3.14102 1.70189 2.50897C1.69189 2.49897 0.795892 2.49497 0.0698917 2.50097C-0.0351083 2.50197 -0.0941083 2.29597 1.00789 5.79997C1.15989 6.28497 1.38889 6.97197 1.51489 7.32597C1.66089 7.73397 1.76489 8.04997 1.83589 8.31297C1.96189 8.81397 1.96589 9.12797 1.93889 9.49497C1.90689 9.91797 1.90289 12.908 1.93389 12.958C1.95789 12.996 3.35889 13.014 3.49189 12.978C3.51289 12.972 3.52689 12.952 3.53689 12.839C3.56989 12.742 3.57289 12.355 3.57289 10.749V8.69797L3.66289 8.41497C3.72189 8.22997 3.86889 7.74297 3.99089 7.33297L4.31789 6.24297C4.84689 4.51897 5.35089 2.82397 5.36489 2.72697L5.37589 2.64797L5.37489 2.64697ZM13.2209 5.13497V5.24197H13.2039L13.1949 8.19497L13.1859 11.058L12.9569 11.291C12.6999 11.552 12.4949 11.652 12.3089 11.605C12.1059 11.554 12.1119 11.633 12.0949 8.24897L12.0789 5.13397H10.6049V5.24097H10.5879V8.62097C10.5879 12.242 10.5879 12.24 10.7719 12.603C10.9179 12.893 11.1319 13.034 11.4969 13.082C11.9779 13.146 12.4969 12.928 12.9779 12.46L13.1869 12.257V12.608C13.1869 12.911 13.1959 12.961 13.2509 12.976C13.3409 13.001 14.4569 13.003 14.5769 12.978L14.6769 12.957V12.853L14.6939 12.85V5.11397L13.2219 5.13397L13.2209 5.13497ZM9.48289 6.66097C9.34289 6.06197 9.08189 5.65897 8.65089 5.38097C7.97489 4.94397 7.20189 4.89697 6.48589 5.25097C5.96389 5.50897 5.62689 5.93697 5.45389 6.56497C5.43168 6.6405 5.41596 6.71778 5.40689 6.79597C5.36289 7.01797 5.35789 7.34797 5.34589 8.88897C5.32789 11.263 5.35589 11.545 5.65289 12.084C5.94489 12.613 6.54989 13.001 7.20889 13.081C7.40689 13.105 7.80889 13.068 8.04089 13.003C8.56589 12.857 9.06989 12.442 9.29289 11.971C9.39107 11.7824 9.45506 11.5779 9.48189 11.367C9.54689 11.014 9.55189 10.442 9.55189 8.98597C9.55189 7.12897 9.54589 6.92597 9.48389 6.65997L9.48289 6.66097ZM7.80189 11.5C7.64989 11.5993 7.46476 11.6346 7.28689 11.598C7.15189 11.569 6.96889 11.357 6.91289 11.164C6.84289 10.923 6.83789 7.56997 6.89789 6.91297C6.99789 6.58397 7.27589 6.41197 7.57989 6.49397C7.81689 6.55797 7.93789 6.70597 8.00689 7.01697C8.05789 7.24797 8.06389 7.53497 8.05289 9.22397C8.04589 10.344 8.04189 10.892 8.00489 11.186C7.96789 11.371 7.90589 11.421 7.80189 11.501V11.5ZM35.9439 8.34597H36.6559L36.6449 7.70097C36.6339 7.10897 36.6249 7.04197 36.5459 6.88097C36.4209 6.62797 36.2369 6.51497 35.9449 6.51497C35.5939 6.51497 35.3719 6.68497 35.2669 7.03297C35.2219 7.18097 35.1749 8.19997 35.2089 8.28797C35.2279 8.33697 35.3299 8.34597 35.9439 8.34597V8.34597ZM31.1839 6.87897C31.1415 6.79007 31.0734 6.71599 30.9883 6.6664C30.9032 6.61681 30.8051 6.59401 30.7069 6.60097C30.5208 6.61519 30.3435 6.68603 30.1989 6.80397L30.0719 6.90097V11.535L30.1989 11.632C30.4869 11.852 30.8029 11.898 31.0209 11.752C31.1112 11.6882 31.1769 11.5954 31.2069 11.489C31.2639 11.325 31.2689 11.114 31.2619 9.16397C31.2539 7.13197 31.2499 7.01197 31.1839 6.87897V6.87897Z" fill="#888888"/>
<path d="M40.014 4.79103C39.872 3.09003 39.759 2.53803 39.409 1.82903C38.944 0.89003 38.273 0.39503 37.317 0.28603C36.578 0.20203 33.796 0.0830301 31.223 0.0260301C26.767 -0.0729699 19.441 0.11803 18.505 0.35703C18.0872 0.459551 17.7076 0.679558 17.411 0.99103C16.82 1.57903 16.467 2.42303 16.326 3.59103C16.003 6.25703 15.996 9.47703 16.307 12.24C16.441 13.428 16.717 14.2 17.235 14.836C17.558 15.233 18.116 15.57 18.614 15.671C18.964 15.742 20.714 15.84 23.264 15.931C23.644 15.945 24.649 15.968 25.499 15.983C27.269 16.014 30.524 15.996 32.385 15.944C33.637 15.909 35.919 15.816 36.346 15.783C36.466 15.774 36.744 15.756 36.964 15.744C37.703 15.702 38.173 15.548 38.614 15.201C39.185 14.752 39.627 13.923 39.814 12.95C39.991 12.03 40.109 10.391 40.133 8.53003C40.153 6.97503 40.126 6.13703 40.014 4.78903V4.79103ZM22.27 4.17503L21.442 4.18503L21.406 13.015L20.688 13.024C20.133 13.032 19.964 13.023 19.951 12.988C19.941 12.963 19.93 10.972 19.925 8.56403L19.916 4.18503L18.299 4.16503V2.78503L23.078 2.80403L23.098 4.16403L22.27 4.17403V4.17503ZM27.347 9.23603V13.033H26.039V12.633C26.039 12.332 26.028 12.233 25.992 12.233C25.966 12.233 25.848 12.332 25.729 12.453C25.47 12.716 25.164 12.927 24.902 13.025C24.36 13.228 23.846 13.109 23.627 12.732C23.426 12.387 23.423 12.309 23.423 8.72703V5.43703H24.73L24.74 8.53503C24.75 11.579 24.751 11.635 24.824 11.759C24.921 11.923 25.068 11.968 25.302 11.903C25.44 11.865 25.534 11.798 25.757 11.576L26.039 11.296V5.43703H27.347V9.23403V9.23603ZM32.449 12.491C32.334 12.748 32.077 12.999 31.866 13.061C31.317 13.223 30.876 13.091 30.367 12.612C30.209 12.463 30.062 12.343 30.04 12.343C30.013 12.343 29.999 12.459 29.999 12.688V13.033H28.691V2.78503H29.999V4.45703C29.999 5.37603 30.011 6.12903 30.026 6.12903C30.041 6.12903 30.179 6.00703 30.333 5.85903C30.687 5.51803 30.982 5.36803 31.357 5.34003C32.026 5.28903 32.425 5.63403 32.607 6.42003C32.664 6.66503 32.669 6.94503 32.669 9.21803C32.669 11.986 32.669 11.998 32.448 12.491H32.449ZM37.984 10.971C37.9772 11.215 37.9514 11.4581 37.907 11.698C37.725 12.372 37.241 12.85 36.541 13.046C35.599 13.31 34.561 12.878 34.147 12.049C33.915 11.584 33.906 11.491 33.906 9.21803C33.906 7.36503 33.913 7.13703 33.972 6.88403C34.14 6.16903 34.556 5.70603 35.261 5.44903C35.465 5.37503 35.678 5.33603 35.891 5.33203C36.652 5.31603 37.406 5.72503 37.723 6.39103C37.936 6.84003 37.963 7.03303 37.984 8.29903L38.003 9.43503L35.214 9.45403L35.204 10.217C35.189 11.294 35.262 11.625 35.553 11.82C35.797 11.985 36.173 11.972 36.377 11.793C36.569 11.625 36.623 11.444 36.642 10.916L36.659 10.453H38.006L37.984 10.971V10.971Z" fill="#888888"/>
</g>
<defs>
<clipPath id="clip0_1709_107">
<rect width="40" height="16" fill="white"/>
</clipPath>
</defs>
</svg>
